# xmcd
#
# Track frame offsets:
#	182
#	2137
#	17550
#	34290
#	50447
#	68675
#	69982
#	87627
#	108050
#	109272
#	127382
#	144765
#	162617
#	181557
#	182595
#	198187
#	219247
#	237170
#	252472
#	255337
#
# Disc length: 3583 seconds
#
# Revision: 68
# Processed by: cddbd v1.5.2PL0 Copyright (c) Steve Scherf et al.
# Submitted via: audiograbber 1.83.01
#
DISCID=0e0dfd14
DTITLE=Various Artist - ESPN Jock Jams Volume 1
DYEAR=1995
DGENRE=Rock
TTITLE0=Various Artist - Buffer Michael-Let's Get Ready To Rumble!
TTITLE1=2 Unlimited - Get Ready 4 This
TTITLE2=Tag Team - Whoomp! There It Is
TTITLE3=Black Box - Strike It Up
TTITLE4=69 Boys - Tootsie Roll
TTITLE5=Various Artist - Jock Jams Cheerleaders-Pump It Up, Go 'Head, Go 'Head
TTITLE6=K7 - Come Baby Come
TTITLE7=Rob Base - It Takes Two
TTITLE8=Various Artist - Anonymous-Gridiron Groove...
TTITLE9=C and C Music Factory - Gonna Make You Sweat
TTITLE10=Naughty By Nature - Hip Hop Hooray
TTITLE11=MARRS - Pump Up The Volume
TTITLE12=Snap - The Power
TTITLE13=Various Artist - Jock Jams Cheerleaders-Uh, Ungawa!
TTITLE14=EMF - Unbelievable
TTITLE15=Village People - YMCA
TTITLE16=Technotronic - Pump Up The Jam
TTITLE17=2 Unlimited - Twilight Zone
TTITLE18=Various Artist - Castoldi Ray-The Old Ballgame
TTITLE19=Gary Glitter - Rock And Roll Part 2
EXTD=
EXTT0=
EXTT1=
EXTT2=
EXTT3=
EXTT4=
EXTT5=
EXTT6=
EXTT7=
EXTT8=
EXTT9=
EXTT10=
EXTT11=
EXTT12=
EXTT13=
EXTT14=
EXTT15=
EXTT16=
EXTT17=
EXTT18=
EXTT19=
PLAYORDER=
